<svg width="156" height="56" viewBox="0 0 156 56" fill="none" xmlns="http://www.w3.org/2000/svg">
<path d="M79.5882 1.05238L86.5472 16.4285C86.6732 16.7069 86.864 16.9477 87.102 17.1289C87.34 17.31 87.6177 17.4257 87.9095 17.4653L104.023 19.6444C105.494 19.8432 106.083 21.7424 105.005 22.809L93.1916 34.4909C92.9775 34.7026 92.8176 34.9673 92.7266 35.2605C92.6356 35.5538 92.6164 35.8663 92.6707 36.1693L95.6714 52.892C95.9454 54.4181 94.4024 55.5921 93.101 54.8478L78.8418 46.6914C78.5834 46.5436 78.2936 46.4661 77.9992 46.4661C77.7047 46.4661 77.415 46.5436 77.1565 46.6914L62.8977 54.8482C61.5963 55.5926 60.0529 54.4185 60.3274 52.8924L63.328 36.1698C63.3824 35.8667 63.3633 35.5542 63.2722 35.2609C63.1812 34.9676 63.0213 34.703 62.8072 34.4913L50.994 22.8095C49.9158 21.7432 50.5048 19.8437 51.9757 19.6448L68.0897 17.4653C68.3815 17.4257 68.6592 17.31 68.8972 17.1287C69.1352 16.9475 69.326 16.7066 69.452 16.4281L76.4101 1.05238C77.0464 -0.350792 78.9532 -0.350792 79.5882 1.05238Z" fill="url(#paint0_linear_52_690)"/>
<path d="M17.98 22.1882L22.2728 31.68C22.3505 31.8519 22.4682 32.0005 22.6151 32.1124C22.7619 32.2242 22.9331 32.2956 23.1131 32.3201L33.0531 33.6652C33.9604 33.788 34.324 34.9603 33.6589 35.6188L26.3715 42.8301C26.2394 42.9608 26.1408 43.1241 26.0847 43.3052C26.0285 43.4862 26.0167 43.6791 26.0502 43.8662L27.9012 54.1892C28.0702 55.1313 27.1184 55.856 26.3156 55.3965L17.5196 50.3616C17.3602 50.2703 17.1814 50.2224 16.9998 50.2224C16.8181 50.2224 16.6394 50.2703 16.48 50.3616L7.68419 55.3968C6.8814 55.8563 5.92933 55.1315 6.09864 54.1895L7.94964 43.8665C7.9832 43.6794 7.97137 43.4864 7.91522 43.3054C7.85908 43.1244 7.76043 42.961 7.62833 42.8303L0.341207 35.619C-0.32391 34.9608 0.0394203 33.7882 0.946758 33.6654L10.8869 32.3201C11.067 32.2956 11.2383 32.2242 11.3851 32.1123C11.5319 32.0004 11.6496 31.8517 11.7273 31.6797L16.0195 22.1882C16.412 21.322 17.5883 21.322 17.98 22.1882Z" fill="url(#paint1_linear_52_690)"/>
<path d="M139.98 22.1882L144.273 31.68C144.351 31.8519 144.468 32.0005 144.615 32.1124C144.762 32.2242 144.933 32.2956 145.113 32.3201L155.053 33.6652C155.96 33.788 156.324 34.9603 155.659 35.6188L148.371 42.8301C148.239 42.9608 148.141 43.1241 148.085 43.3052C148.029 43.4862 148.017 43.6791 148.05 43.8662L149.901 54.1892C150.07 55.1313 149.118 55.856 148.316 55.3965L139.52 50.3616C139.36 50.2703 139.181 50.2224 139 50.2224C138.818 50.2224 138.639 50.2703 138.48 50.3616L129.684 55.3968C128.881 55.8563 127.929 55.1315 128.099 54.1895L129.95 43.8665C129.983 43.6794 129.971 43.4864 129.915 43.3054C129.859 43.1244 129.76 42.961 129.628 42.8303L122.341 35.619C121.676 34.9608 122.039 33.7882 122.947 33.6654L132.887 32.3201C133.067 32.2956 133.238 32.2242 133.385 32.1123C133.532 32.0004 133.65 31.8517 133.727 31.6797L138.02 22.1882C138.412 21.322 139.588 21.322 139.98 22.1882Z" fill="url(#paint2_linear_52_690)"/>
<defs>
<linearGradient id="paint0_linear_52_690" x1="77.9995" y1="0" x2="77.9995" y2="55.0779" gradientUnits="userSpaceOnUse">
<stop stop-color="#FEDA00"/>
<stop offset="0.760861" stop-color="#FDAE25"/>
</linearGradient>
<linearGradient id="paint1_linear_52_690" x1="17" y1="21.5386" x2="17" y2="55.5386" gradientUnits="userSpaceOnUse">
<stop stop-color="#FEDA00"/>
<stop offset="0.760861" stop-color="#FDAE25"/>
</linearGradient>
<linearGradient id="paint2_linear_52_690" x1="139" y1="21.5386" x2="139" y2="55.5386" gradientUnits="userSpaceOnUse">
<stop stop-color="#FEDA00"/>
<stop offset="0.760861" stop-color="#FDAE25"/>
</linearGradient>
</defs>
</svg>
